<svg id="Layer_1" data-name="Layer 1" xmlns="http://www.w3.org/2000/svg" viewBox="0 0 1200 1200"><defs><style>.cls-1{fill:none;stroke:#ed1c24;stroke-miterlimit:10;stroke-width:51.13px;}.cls-2{fill:#ed1c24;}</style></defs><title>oglogo</title><line class="cls-1" x1="600" y1="267.66" x2="600" y2="182.44"/><circle class="cls-2" cx="600" cy="122.79" r="68.17"/><line class="cls-1" x1="387.48" y1="387.48" x2="319.31" y2="319.31"/><circle class="cls-2" cx="293.22" cy="293.22" r="51.13"/><path class="cls-2" d="M600,327.31a271.61,271.61,0,1,1-106.12,21.4A270.92,270.92,0,0,1,600,327.31m0-68.17c-188.25,0-340.86,152.61-340.86,340.86S411.75,940.86,600,940.86,940.86,788.25,940.86,600,788.25,259.14,600,259.14Z"/><circle class="cls-2" cx="276.18" cy="804.52" r="51.13"/><line class="cls-1" x1="418.21" y1="855.65" x2="304.58" y2="1026.08"/><circle class="cls-2" cx="272.77" cy="1077.21" r="68.17"/><circle class="cls-2" cx="872.69" cy="804.52" r="68.17"/><circle class="cls-2" cx="531.83" cy="668.17" r="86.74"/><circle class="cls-2" cx="702.26" cy="497.74" r="43.47"/><line class="cls-1" x1="906.78" y1="600" x2="1111.3" y2="600"/><circle class="cls-2" cx="991.99" cy="402.3" r="51.13"/><circle class="cls-2" cx="1094.25" cy="600" r="51.13"/><line class="cls-1" x1="957.91" y1="421.05" x2="855.65" y2="472.18"/><circle class="cls-2" cx="787.48" cy="310.27" r="51.13"/><line class="cls-1" x1="736.35" y1="872.69" x2="804.52" y2="1009.04"/><circle class="cls-2" cx="804.52" cy="1009.04" r="68.17"/><circle class="cls-2" cx="259.14" cy="634.09" r="34.09"/><circle class="cls-2" cx="122.79" cy="497.74" r="68.17"/><line class="cls-1" x1="165.4" y1="511.38" x2="284.7" y2="538.64"/></svg>