<?xml version="1.0" encoding="utf-8"?>
<!-- Generator: Adobe Illustrator 22.1.0, SVG Export Plug-In . SVG Version: 6.00 Build 0)  -->
<svg version="1.1" id="Layer_1" xmlns="http://www.w3.org/2000/svg" xmlns:xlink="http://www.w3.org/1999/xlink" x="0px" y="0px"
	 viewBox="0 0 16 16" style="enable-background:new 0 0 16 16;" xml:space="preserve">
<style type="text/css">
	.st0{fill:none;stroke:#ED1C24;stroke-width:0.75;stroke-miterlimit:10;}
	.st1{fill:#ED1C24;}
</style>
<title>imageArtboard 1logo</title>
<line class="st0" x1="8" y1="3.1" x2="8" y2="1.9"/>
<circle class="st1" cx="8" cy="1" r="1"/>
<line class="st0" x1="5" y1="5" x2="4" y2="4"/>
<circle class="st1" cx="3.5" cy="3.5" r="0.8"/>
<path class="st1" d="M8,4c2.2,0,4,1.8,4,4s-1.8,4-4,4s-4-1.8-4-4S5.8,4,8,4 M8,3C5.2,3,3,5.2,3,8s2.2,5,5,5s5-2.2,5-5S10.8,3,8,3z"
	/>
<circle class="st1" cx="3.3" cy="11" r="0.8"/>
<line class="st0" x1="5.3" y1="11.8" x2="3.7" y2="14.3"/>
<circle class="st1" cx="3.2" cy="15" r="1"/>
<circle class="st1" cx="12" cy="11" r="1"/>
<circle class="st1" cx="7" cy="9" r="1.3"/>
<circle class="st1" cx="9.5" cy="6.5" r="0.6"/>
<line class="st0" x1="12.5" y1="8" x2="15.5" y2="8"/>
<circle class="st1" cx="13.8" cy="5.1" r="0.8"/>
<circle class="st1" cx="15.3" cy="8" r="0.8"/>
<line class="st0" x1="13.3" y1="5.4" x2="11.8" y2="6.1"/>
<circle class="st1" cx="10.8" cy="3.8" r="0.8"/>
<line class="st0" x1="10" y1="12" x2="11" y2="14"/>
<circle class="st1" cx="11" cy="14" r="1"/>
<circle class="st1" cx="3" cy="8.5" r="0.5"/>
<circle class="st1" cx="1" cy="6.5" r="1"/>
<line class="st0" x1="1.6" y1="6.7" x2="3.4" y2="7.1"/>
</svg>
