<svg id="Layer_1" data-name="Layer 1" xmlns="http://www.w3.org/2000/svg" viewBox="0 0 16 16"><defs><style>.cls-1{fill:none;stroke:#ed1c24;stroke-miterlimit:10;stroke-width:0.75px;}.cls-2{fill:#ed1c24;}</style></defs><title>imageArtboard 1logo</title><line class="cls-1" x1="8" y1="3.13" x2="8" y2="1.88"/><circle class="cls-2" cx="8" cy="1" r="1"/><line class="cls-1" x1="5" y1="5" x2="4" y2="4"/><circle class="cls-2" cx="3.5" cy="3.5" r="0.75"/><path class="cls-2" d="M8,4A4,4,0,1,1,4,8,4,4,0,0,1,8,4M8,3a5,5,0,1,0,5,5A5,5,0,0,0,8,3Z"/><circle class="cls-2" cx="3.25" cy="11" r="0.75"/><line class="cls-1" x1="5.33" y1="11.75" x2="3.67" y2="14.25"/><circle class="cls-2" cx="3.2" cy="15" r="1"/><circle class="cls-2" cx="12" cy="11" r="1"/><circle class="cls-2" cx="7" cy="9" r="1.14"/><circle class="cls-2" cx="9.5" cy="6.5" r="0.57"/><line class="cls-1" x1="12.5" y1="8" x2="15.5" y2="8"/><circle class="cls-2" cx="13.75" cy="5.1" r="0.75"/><circle class="cls-2" cx="15.25" cy="8" r="0.75"/><line class="cls-1" x1="13.25" y1="5.38" x2="11.75" y2="6.13"/><circle class="cls-2" cx="10.75" cy="3.75" r="0.75"/><line class="cls-1" x1="10" y1="12" x2="11" y2="14"/><circle class="cls-2" cx="11" cy="14" r="1"/><circle class="cls-2" cx="3" cy="8.5" r="0.5"/><circle class="cls-2" cx="1" cy="6.5" r="1"/><line class="cls-1" x1="1.62" y1="6.7" x2="3.38" y2="7.1"/></svg>